<?xml version="1.0" encoding="UTF-8" standalone="no"?>
<svg
   enable-background="new 0 0 2500 2320"
   height="301.68179"
   viewBox="0 0 325 301.68179"
   width="325"
   version="1.1"
   id="svg16"
   xmlns="http://www.w3.org/2000/svg"
   xmlns:svg="http://www.w3.org/2000/svg">
  <defs
     id="defs20" />
  <path
     d="m 233.02919,133.26778 c -25.77651,13.85376 -43.4615,18.14474 -69.72852,19.58522 -20.53534,0.95012 -52.04345,-2.85049 -80.210558,-12.41312 -0.490516,-0.49051 -2.390749,-0.95026 -2.390749,0.95012 v 1.90023 c 0,4.29098 0,13.36339 0.490369,17.19462 0,2.85035 1.440485,3.34079 2.390748,3.34079 15.75398,6.68166 53.94368,20.53541 102.67697,8.58196 17.19462,-3.83123 42.97112,-18.14473 54.4342,-27.21714 0.95012,-1.44055 1.90016,-2.3906 1.90016,-3.34086 0,-3.34072 -0.49029,-9.07226 -0.49029,-10.02252 0,-1.90023 -1.44063,-2.3906 -3.83124,-1.44056 -1.44048,0.95026 -3.34086,1.90045 -5.24109,2.88126 m 8.58189,-75.950352 H 202.47111 V 19.127726 H 179.08528 V 119.87378 h 23.38583 V 81.68408 H 241.6417 M 119.83918,37.762829 v 19.58522 H 80.208995 V 81.7147 h 39.630255 v 19.09477 h 23.38583 V 37.762829"
     fill="#006634"
     stroke-width="0.0957015"
     id="path12" />
  <path
     d="m 262.37836,195.62656 c -9.00041,0 -17.05802,8.05769 -17.05802,18.48714 0,9.9429 8.05761,18.00059 17.05802,18.00059 9.48666,0 17.51398,-8.05769 17.51398,-18.00059 0,-10.42945 -8.0577,-18.48714 -17.51398,-18.48714 z m 0,30.31525 c -4.25704,0 -8.51386,-5.19961 -8.51386,-11.82811 0,-6.62858 4.25682,-11.82819 8.51386,-11.82819 5.19946,0 9.00019,5.19961 9.00019,11.82819 0,6.6285 -3.80073,11.82811 -9.00019,11.82811 z M 239.6344,196.5692 h -10.42952 l -7.11498,24.173 -6.62857,-24.173 h -10.8854 l -1.42919,34.57214 h 7.11512 l 1.42912,-27.48747 6.6285,27.00086 h 0.94257 v 0.48647 h 5.19961 l 8.51371,-27.48733 0.94272,27.48733 h 7.11505 m -58.71477,-9.9429 h 15.62884 c 0,-2.82771 0.94264,-8.51372 -2.37169,-11.82804 -3.31418,-3.8008 -12.31451,-6.17256 -18.00052,0.48647 -5.68608,7.11512 -2.37168,15.17281 0.48647,18.48714 4.2569,4.25689 9.94291,3.8008 14.1998,3.31425 1.88506,0 4.25689,-0.94257 4.25689,-0.94257 v -5.19961 c 0,0 -7.57121,1.88514 -10.88554,0 -3.31418,-0.94256 -3.31418,-2.37161 -3.8008,-4.25689 h 0.48662 z m -0.48662,-5.19947 v -0.48654 c 1.88514,-7.11498 9.48681,-5.19946 9.9429,0.48654 z m -19.88573,-21.31484 v 14.68627 c -1.88514,-2.37161 -4.25689,-3.8008 -7.11505,-3.8008 -5.68608,0 -10.8854,5.68601 -10.8854,13.25723 0,7.57121 4.74329,13.25715 10.4293,13.25715 2.82778,0 5.68601,-1.42919 7.57115,-4.25689 v 3.80065 h 8.05769 v -36.94361 z m -5.19946,31.25782 c -3.31418,0 -5.68601,-3.31433 -5.68601,-7.11512 0,-4.2569 2.82778,-7.11513 5.68601,-7.11513 3.31432,0 5.19953,2.82786 5.19953,7.11513 -7e-5,3.80072 -2.37168,7.11512 -5.19953,7.11512 z m -16.60193,5.68593 -10.42945,-34.57214 -4.2569,-0.48647 h -1.88513 l -4.2569,0.48647 -10.42937,34.57214 h 8.05762 l 7.57122,-31.25774 7.57114,31.25774 M 96.085823,197.05567 v 12.80106 H 83.771311 v -12.80106 h -8.513787 v 34.57215 h 8.513787 v -15.17289 h 12.314512 v 15.17289 h 8.057687 v -34.57215 m -34.571994,27.00086 c -2.371684,0.94256 -5.199463,1.42904 -7.571219,1.42904 -6.172481,0 -10.88547,-4.74337 -10.88547,-11.37187 0,-7.11505 4.743366,-11.82819 11.371943,-11.82819 2.827852,0 4.743367,0.48655 6.62865,1.42919 l 1.429041,-5.68601 c -2.371683,-0.94264 -5.199462,-1.88521 -8.513787,-1.88521 -10.946225,0.42572 -19.460012,7.54077 -19.460012,17.93962 0,10.39914 7.571219,18.00074 18.000593,18.00074 3.314325,0 6.628577,-0.48647 9.486807,-1.42919"
     stroke-width="0.0949411"
     id="path14" />
  <text
     xml:space="preserve"
     style="font-size:37.3333px;fill:#000000"
     x="105.95872"
     y="279.4534"
     id="text285"><tspan
       id="tspan283"
       x="105.95872"
       y="279.4534"
       style="font-style:normal;font-variant:normal;font-weight:bold;font-stretch:normal;font-size:37.3333px;font-family:Arial;-inkscape-font-specification:Arial">EVCC</tspan></text>
</svg>
